<svg width="92" height="92" viewBox="0 0 92 92" fill="none" xmlns="http://www.w3.org/2000/svg">
<path fill-rule="evenodd" clip-rule="evenodd" d="M45.6097 21.0479C31.3913 21.0479 19.875 32.5183 19.875 46.6802C19.875 58.0225 27.2416 67.6026 37.4711 70.9989C38.7578 71.2232 39.2404 70.4542 39.2404 69.7813C39.2404 69.1726 39.2082 67.154 39.2082 65.0073C32.7424 66.1928 31.0696 63.4373 30.5549 61.9955C30.2654 61.2586 29.0108 58.9837 27.9171 58.375C27.0164 57.8943 25.7296 56.7089 27.8849 56.6768C29.9115 56.6448 31.3591 58.5352 31.8416 59.3041C34.1578 63.181 37.8571 62.0916 39.3369 61.4188C39.562 59.7527 40.2376 58.6313 40.9775 57.9905C35.2515 57.3497 29.2682 55.1389 29.2682 45.3345C29.2682 42.547 30.2654 40.2401 31.906 38.4458C31.6486 37.805 30.7479 35.1777 32.1633 31.6532C32.1633 31.6532 34.3186 30.9804 39.2404 34.2806C41.2991 33.7038 43.4866 33.4155 45.674 33.4155C47.8615 33.4155 50.0489 33.7038 52.1077 34.2806C57.0295 30.9483 59.1848 31.6532 59.1848 31.6532C60.6002 35.1777 59.6994 37.805 59.4421 38.4458C61.0827 40.2401 62.0799 42.5149 62.0799 45.3345C62.0799 55.1709 56.0644 57.3497 50.3385 57.9905C51.2713 58.7915 52.0755 60.3294 52.0755 62.7325C52.0755 66.1608 52.0434 68.9163 52.0434 69.7813C52.0434 70.4542 52.5259 71.2552 53.8126 70.9989C63.9778 67.6026 71.3444 57.9905 71.3444 46.6802C71.3444 32.5183 59.8281 21.0479 45.6097 21.0479Z" fill="white"/>
</svg>
