<svg width="92" height="92" viewBox="0 0 92 92" fill="none" xmlns="http://www.w3.org/2000/svg">
<path fill-rule="evenodd" clip-rule="evenodd" d="M72.4961 32.5968C72.8831 31.3865 72.4962 30.4971 70.6546 30.4971H64.5652C63.0168 30.4971 62.303 31.2654 61.9159 32.1126C61.9159 32.1126 58.8192 39.1932 54.4323 43.7925C53.013 45.1239 52.3678 45.5475 51.5937 45.5475C51.2066 45.5475 50.6463 45.1239 50.6463 43.9136V32.5968C50.6463 31.1444 50.197 30.4971 48.9066 30.4971H39.3374C38.3699 30.4971 37.7879 31.1712 37.7879 31.8101C37.7879 33.187 39.9813 33.5045 40.2074 37.3777V45.7897C40.2074 47.634 39.8523 47.9684 39.0781 47.9684C37.0138 47.9684 31.9922 40.8561 29.014 32.7178C28.4303 31.136 27.8449 30.4971 26.2886 30.4971H20.1992C18.4593 30.4971 18.1113 31.2654 18.1113 32.1126C18.1113 33.6256 20.1758 41.1298 27.7238 51.0547C32.7558 57.8326 39.8455 61.5067 46.2968 61.5067C50.1676 61.5067 50.6464 60.6907 50.6464 59.2851V54.1623C50.6464 52.5303 51.0131 52.2045 52.2389 52.2045C53.142 52.2045 54.6904 52.6281 58.3032 55.8961C62.432 59.7692 63.1127 61.5067 65.4351 61.5067H71.5246C73.2644 61.5067 74.1343 60.6907 73.6325 59.0803C73.0833 57.4752 71.112 55.1465 68.4963 52.3861C67.0769 50.8126 64.948 49.1182 64.3028 48.2708C63.3997 47.1816 63.6577 46.6973 64.3028 45.7291C64.3028 45.7291 71.722 35.9252 72.4961 32.5968Z" fill="white"/>
</svg>
